# xmcd
#
# Track frame offsets: 
#        150
#        7752
#        28763
#        60910
#        82087
#        115995
#        136840
#        168212
#
# Disc length: 2526 seconds
#
# Revision: 2
# Processed by: cddbd v1.5.2PL0 Copyright (c) Steve Scherf et al.
# Submitted via: ExactAudioCopy v0.99pb4
#
DISCID=5609dc08
DTITLE=Аркадий Северный - И Ансамбль 6+1. Часть 1
DYEAR=1999
DGENRE=Chanson
TTITLE0=Вступление
TTITLE1=Николаевский Трамвай
TTITLE2=Ветер
TTITLE3=Машина С Красной Полосой
TTITLE4="Надежда"
TTITLE5=Она Была Первой
TTITLE6=Где Ты, Юность Моя?
TTITLE7=Глаз Твоих Всегдашняя Усталость
EXTD=
EXTT0=
EXTT1=
EXTT2=
EXTT3=
EXTT4=
EXTT5=
EXTT6=
EXTT7=
PLAYORDER=
